# xmcd
#
# Track frame offsets: 
#        150
#        12236
#        23425
#        33987
#        42122
#        52980
#        67864
#        86313
#        100291
#        108353
#        126147
#        134081
#
# Disc length: 2041 seconds
#
# Revision: 0
# Processed by: cddbd v1.5.2PL0 Copyright (c) Steve Scherf et al.
# Submitted via: ExactAudioCopy v0.99pb4
#
DISCID=8d07f70c
DTITLE=Nikolaj Andersen - Shout and Scream
DYEAR=2009
DGENRE=Blues
TTITLE0=Shout and Scream
TTITLE1=Instrumental 2String #29
TTITLE2=I can move your lawn
TTITLE3=Salty dog rag
TTITLE4=Wildcat blues
TTITLE5=Boogie
TTITLE6=Some folks say
TTITLE7=Bad boy
TTITLE8=Devils dream
TTITLE9=Motherless children
TTITLE10=I'm glad salvation is free
TTITLE11=My Hometown
EXTD=
EXTT0=
EXTT1=
EXTT2=
EXTT3=
EXTT4=
EXTT5=
EXTT6=
EXTT7=
EXTT8=
EXTT9=
EXTT10=
EXTT11=
PLAYORDER=
